<mxfile host="app.diagrams.net" modified="2024-07-19T06:54:36.747Z" agent="Mozilla/5.0 (Windows NT 10.0; Win64; x64) AppleWebKit/537.36 (KHTML, like Gecko) Chrome/126.0.0.0 Safari/537.36" etag="RgF4BH4-I9iJcYxD05l8" version="24.7.1" type="github">
  <diagram id="C5RBs43oDa-KdzZeNtuy" name="Page-1">
    <mxGraphModel dx="2048" dy="618" grid="1" gridSize="10" guides="1" tooltips="1" connect="1" arrows="1" fold="1" page="1" pageScale="1" pageWidth="827" pageHeight="1169" math="0" shadow="0">
      <root>
        <mxCell id="WIyWlLk6GJQsqaUBKTNV-0" />
        <mxCell id="WIyWlLk6GJQsqaUBKTNV-1" parent="WIyWlLk6GJQsqaUBKTNV-0" />
        <mxCell id="eALv8008DqFlrUhd_jOr-1" value="" style="edgeStyle=orthogonalEdgeStyle;rounded=0;orthogonalLoop=1;jettySize=auto;html=1;endArrow=block;endFill=0;endSize=8;" parent="WIyWlLk6GJQsqaUBKTNV-1" source="WIyWlLk6GJQsqaUBKTNV-3" target="eALv8008DqFlrUhd_jOr-0" edge="1">
          <mxGeometry relative="1" as="geometry" />
        </mxCell>
        <mxCell id="WIyWlLk6GJQsqaUBKTNV-3" value="登录DDS后台管理系统" style="rounded=1;whiteSpace=wrap;html=1;fontSize=12;glass=0;strokeWidth=1;shadow=0;" parent="WIyWlLk6GJQsqaUBKTNV-1" vertex="1">
          <mxGeometry x="330" y="60" width="130" height="40" as="geometry" />
        </mxCell>
        <mxCell id="eALv8008DqFlrUhd_jOr-3" value="" style="edgeStyle=orthogonalEdgeStyle;rounded=0;orthogonalLoop=1;jettySize=auto;html=1;endArrow=block;endFill=0;endSize=8;exitX=0;exitY=0.5;exitDx=0;exitDy=0;" parent="WIyWlLk6GJQsqaUBKTNV-1" source="eALv8008DqFlrUhd_jOr-0" target="eALv8008DqFlrUhd_jOr-2" edge="1">
          <mxGeometry relative="1" as="geometry">
            <mxPoint x="665" y="190" as="sourcePoint" />
          </mxGeometry>
        </mxCell>
        <mxCell id="eALv8008DqFlrUhd_jOr-5" value="" style="edgeStyle=orthogonalEdgeStyle;rounded=0;orthogonalLoop=1;jettySize=auto;html=1;strokeColor=default;align=center;verticalAlign=middle;fontFamily=Helvetica;fontSize=11;fontColor=default;labelBackgroundColor=default;endArrow=block;endFill=0;endSize=8;exitX=1;exitY=0.5;exitDx=0;exitDy=0;" parent="WIyWlLk6GJQsqaUBKTNV-1" source="eALv8008DqFlrUhd_jOr-0" target="eALv8008DqFlrUhd_jOr-4" edge="1">
          <mxGeometry relative="1" as="geometry">
            <mxPoint x="725" y="210" as="sourcePoint" />
          </mxGeometry>
        </mxCell>
        <mxCell id="eALv8008DqFlrUhd_jOr-0" value="打开“主数据”菜单" style="whiteSpace=wrap;html=1;rounded=1;glass=0;strokeWidth=1;shadow=0;" parent="WIyWlLk6GJQsqaUBKTNV-1" vertex="1">
          <mxGeometry x="335" y="170" width="120" height="40" as="geometry" />
        </mxCell>
        <mxCell id="eALv8008DqFlrUhd_jOr-9" value="" style="edgeStyle=orthogonalEdgeStyle;shape=connector;rounded=0;orthogonalLoop=1;jettySize=auto;html=1;strokeColor=default;align=center;verticalAlign=middle;fontFamily=Helvetica;fontSize=11;fontColor=default;labelBackgroundColor=default;endArrow=block;endFill=0;endSize=8;exitX=0.5;exitY=1;exitDx=0;exitDy=0;" parent="WIyWlLk6GJQsqaUBKTNV-1" source="eALv8008DqFlrUhd_jOr-2" target="eALv8008DqFlrUhd_jOr-8" edge="1">
          <mxGeometry relative="1" as="geometry">
            <mxPoint x="199" y="330" as="sourcePoint" />
          </mxGeometry>
        </mxCell>
        <mxCell id="eALv8008DqFlrUhd_jOr-2" value="选择“数据维护”子菜单" style="whiteSpace=wrap;html=1;rounded=1;glass=0;strokeWidth=1;shadow=0;" parent="WIyWlLk6GJQsqaUBKTNV-1" vertex="1">
          <mxGeometry x="239" y="280" width="120" height="50" as="geometry" />
        </mxCell>
        <mxCell id="eALv8008DqFlrUhd_jOr-13" value="" style="edgeStyle=orthogonalEdgeStyle;shape=connector;rounded=0;orthogonalLoop=1;jettySize=auto;html=1;strokeColor=default;align=center;verticalAlign=middle;fontFamily=Helvetica;fontSize=11;fontColor=default;labelBackgroundColor=default;endArrow=block;endFill=0;endSize=8;" parent="WIyWlLk6GJQsqaUBKTNV-1" source="eALv8008DqFlrUhd_jOr-4" target="eALv8008DqFlrUhd_jOr-12" edge="1">
          <mxGeometry relative="1" as="geometry" />
        </mxCell>
        <mxCell id="eALv8008DqFlrUhd_jOr-4" value="选择“数据查询”子菜单" style="whiteSpace=wrap;html=1;rounded=1;glass=0;strokeWidth=1;shadow=0;" parent="WIyWlLk6GJQsqaUBKTNV-1" vertex="1">
          <mxGeometry x="520" y="280" width="120" height="50" as="geometry" />
        </mxCell>
        <mxCell id="eALv8008DqFlrUhd_jOr-15" value="" style="edgeStyle=orthogonalEdgeStyle;shape=connector;rounded=0;orthogonalLoop=1;jettySize=auto;html=1;strokeColor=default;align=center;verticalAlign=middle;fontFamily=Helvetica;fontSize=11;fontColor=default;labelBackgroundColor=default;endArrow=block;endFill=0;endSize=8;" parent="WIyWlLk6GJQsqaUBKTNV-1" source="eALv8008DqFlrUhd_jOr-6" target="eALv8008DqFlrUhd_jOr-14" edge="1">
          <mxGeometry relative="1" as="geometry" />
        </mxCell>
        <mxCell id="eALv8008DqFlrUhd_jOr-6" value="选择“数据同步”子菜单" style="whiteSpace=wrap;html=1;rounded=1;glass=0;strokeWidth=1;shadow=0;" parent="WIyWlLk6GJQsqaUBKTNV-1" vertex="1">
          <mxGeometry x="72.5" y="830" width="120" height="50" as="geometry" />
        </mxCell>
        <mxCell id="0dU9HU2oXjPrTqerrq3S-19" value="" style="edgeStyle=orthogonalEdgeStyle;shape=connector;rounded=0;orthogonalLoop=1;jettySize=auto;html=1;strokeColor=default;align=center;verticalAlign=middle;fontFamily=Helvetica;fontSize=11;fontColor=default;labelBackgroundColor=default;endArrow=block;endFill=0;endSize=8;" edge="1" parent="WIyWlLk6GJQsqaUBKTNV-1" source="eALv8008DqFlrUhd_jOr-8" target="0dU9HU2oXjPrTqerrq3S-18">
          <mxGeometry relative="1" as="geometry" />
        </mxCell>
        <mxCell id="0dU9HU2oXjPrTqerrq3S-26" value="批量操作" style="edgeLabel;html=1;align=center;verticalAlign=middle;resizable=0;points=[];fontFamily=Helvetica;fontSize=11;fontColor=default;labelBackgroundColor=default;" vertex="1" connectable="0" parent="0dU9HU2oXjPrTqerrq3S-19">
          <mxGeometry x="-0.0609" y="1" relative="1" as="geometry">
            <mxPoint as="offset" />
          </mxGeometry>
        </mxCell>
        <mxCell id="0dU9HU2oXjPrTqerrq3S-29" value="" style="edgeStyle=orthogonalEdgeStyle;shape=connector;rounded=0;orthogonalLoop=1;jettySize=auto;html=1;strokeColor=default;align=center;verticalAlign=middle;fontFamily=Helvetica;fontSize=11;fontColor=default;labelBackgroundColor=default;endArrow=block;endFill=0;endSize=8;" edge="1" parent="WIyWlLk6GJQsqaUBKTNV-1" source="eALv8008DqFlrUhd_jOr-8" target="0dU9HU2oXjPrTqerrq3S-28">
          <mxGeometry relative="1" as="geometry" />
        </mxCell>
        <mxCell id="0dU9HU2oXjPrTqerrq3S-30" value="单个操作" style="edgeLabel;html=1;align=center;verticalAlign=middle;resizable=0;points=[];fontFamily=Helvetica;fontSize=11;fontColor=default;labelBackgroundColor=default;" vertex="1" connectable="0" parent="0dU9HU2oXjPrTqerrq3S-29">
          <mxGeometry x="-0.2989" y="-2" relative="1" as="geometry">
            <mxPoint as="offset" />
          </mxGeometry>
        </mxCell>
        <mxCell id="eALv8008DqFlrUhd_jOr-8" value="选择配置项分类，找到需要维护的主数据" style="whiteSpace=wrap;html=1;rounded=1;glass=0;strokeWidth=1;shadow=0;" parent="WIyWlLk6GJQsqaUBKTNV-1" vertex="1">
          <mxGeometry x="224" y="392.5" width="150" height="55" as="geometry" />
        </mxCell>
        <mxCell id="0dU9HU2oXjPrTqerrq3S-3" value="" style="edgeStyle=orthogonalEdgeStyle;shape=connector;rounded=0;orthogonalLoop=1;jettySize=auto;html=1;strokeColor=default;align=center;verticalAlign=middle;fontFamily=Helvetica;fontSize=11;fontColor=default;labelBackgroundColor=default;endArrow=block;endFill=0;endSize=8;" edge="1" parent="WIyWlLk6GJQsqaUBKTNV-1" source="eALv8008DqFlrUhd_jOr-10" target="0dU9HU2oXjPrTqerrq3S-2">
          <mxGeometry relative="1" as="geometry" />
        </mxCell>
        <mxCell id="eALv8008DqFlrUhd_jOr-10" value="导出当前所有数据成为Excel编辑" style="whiteSpace=wrap;html=1;rounded=1;glass=0;strokeWidth=1;shadow=0;" parent="WIyWlLk6GJQsqaUBKTNV-1" vertex="1">
          <mxGeometry x="-171" y="392.5" width="130" height="55" as="geometry" />
        </mxCell>
        <mxCell id="eALv8008DqFlrUhd_jOr-12" value="查询主数据" style="whiteSpace=wrap;html=1;rounded=1;glass=0;strokeWidth=1;shadow=0;" parent="WIyWlLk6GJQsqaUBKTNV-1" vertex="1">
          <mxGeometry x="520" y="395" width="120" height="60" as="geometry" />
        </mxCell>
        <mxCell id="eALv8008DqFlrUhd_jOr-17" value="" style="edgeStyle=orthogonalEdgeStyle;shape=connector;rounded=0;orthogonalLoop=1;jettySize=auto;html=1;strokeColor=default;align=center;verticalAlign=middle;fontFamily=Helvetica;fontSize=11;fontColor=default;labelBackgroundColor=default;endArrow=block;endFill=0;endSize=8;" parent="WIyWlLk6GJQsqaUBKTNV-1" source="eALv8008DqFlrUhd_jOr-14" target="eALv8008DqFlrUhd_jOr-16" edge="1">
          <mxGeometry relative="1" as="geometry" />
        </mxCell>
        <mxCell id="eALv8008DqFlrUhd_jOr-14" value="选择需要同步的主数据" style="whiteSpace=wrap;html=1;rounded=1;glass=0;strokeWidth=1;shadow=0;" parent="WIyWlLk6GJQsqaUBKTNV-1" vertex="1">
          <mxGeometry x="67.5" y="950" width="130" height="60" as="geometry" />
        </mxCell>
        <mxCell id="eALv8008DqFlrUhd_jOr-16" value="将修改后的主数据同步到MySQL表中" style="whiteSpace=wrap;html=1;rounded=1;glass=0;strokeWidth=1;shadow=0;" parent="WIyWlLk6GJQsqaUBKTNV-1" vertex="1">
          <mxGeometry x="72.5" y="1070" width="120" height="60" as="geometry" />
        </mxCell>
        <mxCell id="0dU9HU2oXjPrTqerrq3S-0" value="&lt;div style=&quot;text-align: justify; font-size: 14px;&quot;&gt;&lt;font style=&quot;font-size: 14px;&quot;&gt;http://192.168.1.196/dds&lt;/font&gt;&lt;/div&gt;&lt;div style=&quot;text-align: justify; font-size: 14px;&quot;&gt;&lt;font style=&quot;font-size: 14px;&quot;&gt;账号: admin&lt;/font&gt;&lt;/div&gt;&lt;div style=&quot;text-align: justify; font-size: 14px;&quot;&gt;&lt;font style=&quot;font-size: 14px;&quot;&gt;密码: 123456&lt;/font&gt;&lt;/div&gt;" style="shape=note;whiteSpace=wrap;html=1;backgroundOutline=1;darkOpacity=0.05;fontFamily=Helvetica;fontSize=11;fontColor=default;labelBackgroundColor=default;" vertex="1" parent="WIyWlLk6GJQsqaUBKTNV-1">
          <mxGeometry x="40" y="30" width="225" height="100" as="geometry" />
        </mxCell>
        <mxCell id="0dU9HU2oXjPrTqerrq3S-1" value="" style="curved=1;endArrow=classic;html=1;rounded=0;strokeColor=default;align=center;verticalAlign=middle;fontFamily=Helvetica;fontSize=11;fontColor=default;labelBackgroundColor=default;edgeStyle=orthogonalEdgeStyle;endSize=8;exitX=0;exitY=0.5;exitDx=0;exitDy=0;entryX=0;entryY=0;entryDx=225;entryDy=65;entryPerimeter=0;" edge="1" parent="WIyWlLk6GJQsqaUBKTNV-1" source="WIyWlLk6GJQsqaUBKTNV-3" target="0dU9HU2oXjPrTqerrq3S-0">
          <mxGeometry width="50" height="50" relative="1" as="geometry">
            <mxPoint x="460" y="80" as="sourcePoint" />
            <mxPoint x="250" y="130" as="targetPoint" />
            <Array as="points">
              <mxPoint x="290" y="80" />
              <mxPoint x="290" y="95" />
            </Array>
          </mxGeometry>
        </mxCell>
        <mxCell id="0dU9HU2oXjPrTqerrq3S-35" value="" style="edgeStyle=orthogonalEdgeStyle;shape=connector;rounded=0;orthogonalLoop=1;jettySize=auto;html=1;strokeColor=default;align=center;verticalAlign=middle;fontFamily=Helvetica;fontSize=11;fontColor=default;labelBackgroundColor=default;endArrow=block;endFill=0;endSize=8;entryX=0;entryY=0.5;entryDx=0;entryDy=0;exitX=0.5;exitY=1;exitDx=0;exitDy=0;" edge="1" parent="WIyWlLk6GJQsqaUBKTNV-1" source="0dU9HU2oXjPrTqerrq3S-2" target="0dU9HU2oXjPrTqerrq3S-32">
          <mxGeometry relative="1" as="geometry">
            <mxPoint x="-106" y="770" as="targetPoint" />
          </mxGeometry>
        </mxCell>
        <mxCell id="0dU9HU2oXjPrTqerrq3S-2" value="点击“导入”按钮，导入修改或填写完成的Excel" style="whiteSpace=wrap;html=1;rounded=1;glass=0;strokeWidth=1;shadow=0;" vertex="1" parent="WIyWlLk6GJQsqaUBKTNV-1">
          <mxGeometry x="-166" y="595" width="120" height="60" as="geometry" />
        </mxCell>
        <mxCell id="0dU9HU2oXjPrTqerrq3S-4" value="点击“下载”按钮，下载导入的模板" style="whiteSpace=wrap;html=1;rounded=1;glass=0;strokeWidth=1;shadow=0;" vertex="1" parent="WIyWlLk6GJQsqaUBKTNV-1">
          <mxGeometry x="9" y="505" width="120" height="60" as="geometry" />
        </mxCell>
        <mxCell id="0dU9HU2oXjPrTqerrq3S-22" value="" style="edgeStyle=orthogonalEdgeStyle;shape=connector;rounded=0;orthogonalLoop=1;jettySize=auto;html=1;strokeColor=default;align=center;verticalAlign=middle;fontFamily=Helvetica;fontSize=11;fontColor=default;labelBackgroundColor=default;endArrow=block;endFill=0;endSize=8;" edge="1" parent="WIyWlLk6GJQsqaUBKTNV-1" source="0dU9HU2oXjPrTqerrq3S-18" target="eALv8008DqFlrUhd_jOr-10">
          <mxGeometry relative="1" as="geometry" />
        </mxCell>
        <mxCell id="0dU9HU2oXjPrTqerrq3S-24" value="修改" style="edgeLabel;html=1;align=center;verticalAlign=middle;resizable=0;points=[];fontFamily=Helvetica;fontSize=11;fontColor=default;labelBackgroundColor=default;" vertex="1" connectable="0" parent="0dU9HU2oXjPrTqerrq3S-22">
          <mxGeometry x="-0.1429" y="3" relative="1" as="geometry">
            <mxPoint y="-3" as="offset" />
          </mxGeometry>
        </mxCell>
        <mxCell id="0dU9HU2oXjPrTqerrq3S-23" value="" style="edgeStyle=orthogonalEdgeStyle;shape=connector;rounded=0;orthogonalLoop=1;jettySize=auto;html=1;strokeColor=default;align=center;verticalAlign=middle;fontFamily=Helvetica;fontSize=11;fontColor=default;labelBackgroundColor=default;endArrow=block;endFill=0;endSize=8;" edge="1" parent="WIyWlLk6GJQsqaUBKTNV-1" source="0dU9HU2oXjPrTqerrq3S-18" target="0dU9HU2oXjPrTqerrq3S-4">
          <mxGeometry relative="1" as="geometry" />
        </mxCell>
        <mxCell id="0dU9HU2oXjPrTqerrq3S-25" value="新增" style="edgeLabel;html=1;align=center;verticalAlign=middle;resizable=0;points=[];fontFamily=Helvetica;fontSize=11;fontColor=default;labelBackgroundColor=default;" vertex="1" connectable="0" parent="0dU9HU2oXjPrTqerrq3S-23">
          <mxGeometry x="-0.7037" y="2" relative="1" as="geometry">
            <mxPoint x="-2" y="13" as="offset" />
          </mxGeometry>
        </mxCell>
        <mxCell id="0dU9HU2oXjPrTqerrq3S-18" value="新增/修改" style="rhombus;whiteSpace=wrap;html=1;rounded=1;glass=0;strokeWidth=1;shadow=0;" vertex="1" parent="WIyWlLk6GJQsqaUBKTNV-1">
          <mxGeometry x="29" y="380" width="80" height="80" as="geometry" />
        </mxCell>
        <mxCell id="0dU9HU2oXjPrTqerrq3S-27" value="" style="endArrow=block;html=1;rounded=0;strokeColor=default;align=center;verticalAlign=middle;fontFamily=Helvetica;fontSize=11;fontColor=default;labelBackgroundColor=default;edgeStyle=orthogonalEdgeStyle;endSize=8;exitX=0.5;exitY=1;exitDx=0;exitDy=0;entryX=1;entryY=0.5;entryDx=0;entryDy=0;endFill=0;" edge="1" parent="WIyWlLk6GJQsqaUBKTNV-1" source="0dU9HU2oXjPrTqerrq3S-4" target="0dU9HU2oXjPrTqerrq3S-2">
          <mxGeometry width="50" height="50" relative="1" as="geometry">
            <mxPoint x="-151" y="760" as="sourcePoint" />
            <mxPoint x="-101" y="710" as="targetPoint" />
          </mxGeometry>
        </mxCell>
        <mxCell id="0dU9HU2oXjPrTqerrq3S-33" value="" style="edgeStyle=orthogonalEdgeStyle;shape=connector;rounded=0;orthogonalLoop=1;jettySize=auto;html=1;strokeColor=default;align=center;verticalAlign=middle;fontFamily=Helvetica;fontSize=11;fontColor=default;labelBackgroundColor=default;endArrow=block;endFill=0;endSize=8;exitX=0.5;exitY=1;exitDx=0;exitDy=0;" edge="1" parent="WIyWlLk6GJQsqaUBKTNV-1" source="0dU9HU2oXjPrTqerrq3S-28" target="0dU9HU2oXjPrTqerrq3S-32">
          <mxGeometry relative="1" as="geometry" />
        </mxCell>
        <mxCell id="0dU9HU2oXjPrTqerrq3S-28" value="&lt;div style=&quot;text-align: left;&quot;&gt;&lt;span style=&quot;background-color: initial;&quot;&gt;点击“新增”按钮，新增单个主数据&lt;/span&gt;&lt;/div&gt;&lt;div style=&quot;text-align: left;&quot;&gt;选择需要修改的主数据，点击“铅笔”按钮&lt;/div&gt;&lt;div style=&quot;text-align: left;&quot;&gt;选择需要删除的主数据，点击“垃圾桶”按钮&lt;/div&gt;" style="whiteSpace=wrap;html=1;rounded=1;glass=0;strokeWidth=1;shadow=0;" vertex="1" parent="WIyWlLk6GJQsqaUBKTNV-1">
          <mxGeometry x="184" y="535" width="230" height="60" as="geometry" />
        </mxCell>
        <mxCell id="0dU9HU2oXjPrTqerrq3S-36" value="" style="edgeStyle=orthogonalEdgeStyle;shape=connector;rounded=0;orthogonalLoop=1;jettySize=auto;html=1;strokeColor=default;align=center;verticalAlign=middle;fontFamily=Helvetica;fontSize=11;fontColor=default;labelBackgroundColor=default;endArrow=block;endFill=0;endSize=8;" edge="1" parent="WIyWlLk6GJQsqaUBKTNV-1" source="0dU9HU2oXjPrTqerrq3S-32" target="eALv8008DqFlrUhd_jOr-6">
          <mxGeometry relative="1" as="geometry" />
        </mxCell>
        <mxCell id="0dU9HU2oXjPrTqerrq3S-37" value="是" style="edgeLabel;html=1;align=center;verticalAlign=middle;resizable=0;points=[];fontFamily=Helvetica;fontSize=11;fontColor=default;labelBackgroundColor=default;" vertex="1" connectable="0" parent="0dU9HU2oXjPrTqerrq3S-36">
          <mxGeometry x="-0.5" y="2" relative="1" as="geometry">
            <mxPoint x="-2" y="7" as="offset" />
          </mxGeometry>
        </mxCell>
        <mxCell id="0dU9HU2oXjPrTqerrq3S-39" value="" style="edgeStyle=orthogonalEdgeStyle;shape=connector;rounded=0;orthogonalLoop=1;jettySize=auto;html=1;strokeColor=default;align=center;verticalAlign=middle;fontFamily=Helvetica;fontSize=11;fontColor=default;labelBackgroundColor=default;endArrow=block;endFill=0;endSize=8;entryX=1;entryY=0.5;entryDx=0;entryDy=0;exitX=1;exitY=0.5;exitDx=0;exitDy=0;" edge="1" parent="WIyWlLk6GJQsqaUBKTNV-1" source="0dU9HU2oXjPrTqerrq3S-32" target="eALv8008DqFlrUhd_jOr-8">
          <mxGeometry relative="1" as="geometry">
            <mxPoint x="247.5" y="745" as="targetPoint" />
            <Array as="points">
              <mxPoint x="480" y="720" />
              <mxPoint x="480" y="420" />
            </Array>
          </mxGeometry>
        </mxCell>
        <mxCell id="0dU9HU2oXjPrTqerrq3S-40" value="否" style="edgeLabel;html=1;align=center;verticalAlign=middle;resizable=0;points=[];fontFamily=Helvetica;fontSize=11;fontColor=default;labelBackgroundColor=default;" vertex="1" connectable="0" parent="0dU9HU2oXjPrTqerrq3S-39">
          <mxGeometry x="-0.1765" y="-1" relative="1" as="geometry">
            <mxPoint x="-257" as="offset" />
          </mxGeometry>
        </mxCell>
        <mxCell id="0dU9HU2oXjPrTqerrq3S-32" value="确认新增或修改&lt;div&gt;是否无误&lt;/div&gt;" style="rhombus;whiteSpace=wrap;html=1;rounded=1;glass=0;strokeWidth=1;shadow=0;" vertex="1" parent="WIyWlLk6GJQsqaUBKTNV-1">
          <mxGeometry x="70" y="660" width="125" height="120" as="geometry" />
        </mxCell>
      </root>
    </mxGraphModel>
  </diagram>
</mxfile>
